<svg id="Layer_1" data-name="Layer 1" xmlns="http://www.w3.org/2000/svg" xmlns:xlink="http://www.w3.org/1999/xlink" viewBox="0 0 100.24 100.24"><defs><style>.cls-1{fill:url(#radial-gradient);}.cls-2{fill:#fff;}</style><radialGradient id="radial-gradient" cx="50" cy="50" r="50" gradientUnits="userSpaceOnUse"><stop offset="0" stop-color="#fff" stop-opacity="0.75"/><stop offset="0.95" stop-color="#fff" stop-opacity="0"/></radialGradient></defs><title>Artboard 1</title><circle class="cls-1" cx="50" cy="50" r="50"/><path d="M43.22,33.07a3.62,3.62,0,0,0,0-.61c0-.57-.07-1.06-.77-1.33a34.22,34.22,0,0,1-3.3-1.56,2.39,2.39,0,0,1-.71-.6,10.52,10.52,0,0,1-.77-1.08c0-.06-.12-.13-.13-.2-.1-1.19-.51-2.4.19-3.56.08-.13.19-.26.27-.39a1.82,1.82,0,0,0,.15-1.83A30.17,30.17,0,0,1,37.13,18a19,19,0,0,1-.53-2.77c-.14-1.64-.21-3.28-.23-4.92a4.3,4.3,0,0,1,1.4-3,21.34,21.34,0,0,1,2.46-2.39,14.15,14.15,0,0,1,4.52-2.32,25.1,25.1,0,0,1,3.35-.89A11.86,11.86,0,0,1,52,1.78,14.84,14.84,0,0,1,56.9,3.92a22.62,22.62,0,0,1,4.6,3.85,3.54,3.54,0,0,1,.73,1.43,14.87,14.87,0,0,1,.25,6.67c-.42,2.09-.68,4.2-1,6.31a.77.77,0,0,0,0,.4,18,18,0,0,0,.77,1.74,2.55,2.55,0,0,1,.19,2,8.44,8.44,0,0,1-.61,1.88,3.58,3.58,0,0,1-1.08,1,5.09,5.09,0,0,1-2.27,1.17,3.8,3.8,0,0,0-1.52.69,1,1,0,0,0-.18.85,1.11,1.11,0,0,1-.64,1.38,6.85,6.85,0,0,1-.81.2,11,11,0,0,1-2.57.64,6.11,6.11,0,0,0-2.51.29c-.19.08-.49-.15-.74-.17-.75-.06-1.5-.08-2.25-.12-.06,0-.14,0-.17,0a2.76,2.76,0,0,0-1.63-.46A16.08,16.08,0,0,1,43.22,33.07ZM52.83,22.3l-.14,0c-.17.54-.34,1.08-.49,1.62,0,.06,0,.16.11.2a7.6,7.6,0,0,0,1.23.9,2.11,2.11,0,0,0,1.23.27c1.15-.22,2.28-.57,3.42-.85a.69.69,0,0,1,.47.08,1.92,1.92,0,0,1,.91,2.21c-.16.68-.13.71.22.91-.34-1.16.5-2.64-.88-3.5a3.61,3.61,0,0,0,1-4.34l.89.45c-.22-.73-.79-.92-1.25-1.25a1.11,1.11,0,0,0-1.33-.05c-1.18.66-2.38,1.31-3.59,1.94a2.56,2.56,0,0,0-1.31,1.9c-.11.55.1.77.59.89a6,6,0,0,1,1,.35,2.88,2.88,0,0,0,3-.13A10.23,10.23,0,0,1,59,23.29a1,1,0,0,1-.38.47,5.41,5.41,0,0,1-2.75,1.1,2.88,2.88,0,0,1-2.53-.56.42.42,0,0,0-.26-.12c-.55-.09-.61-.44-.48-.89S52.74,22.63,52.83,22.3Zm-5.54,1c-.32.38-.55.92-.91,1a8.25,8.25,0,0,1-2.64.43,5.06,5.06,0,0,1-1.67-.69l.08-.18.54.22a2.64,2.64,0,0,0,2.16.11c.35-.13.58-.54.86-.82a1.49,1.49,0,0,1,.28-.23.85.85,0,0,0,.12-1.5,19.18,19.18,0,0,0-2.17-1.41c-.71-.38-1.29-.75-1-1.69a.4.4,0,0,0,0-.18c-.21-.57-.44-1.14-.66-1.72,0,.48.13,1,.16,1.48a1.86,1.86,0,0,1-.18.87c0,.09-.38.07-.57,0a5.62,5.62,0,0,1-1.15-.33c-.67-.32-1,.14-1.5.43,1.07-.05,1-.05.94,1A3.52,3.52,0,0,0,41,23.54a7.62,7.62,0,0,1,.73.77,1.38,1.38,0,0,0-.3,1.87c.25.53.43,1.08.59,1.5a2.76,2.76,0,0,0,0-1.24,1.47,1.47,0,0,1,.11-1.83c.73.15,1.46.34,2.21.47a2.07,2.07,0,0,0,1,0c1-.37,2-.8,2.94-1.19l-.8-.05Zm.5,5.16.22.23a2.66,2.66,0,0,0,.6-.26,8.24,8.24,0,0,0,.62-.56,1.27,1.27,0,0,1,2.18.42s0,0,0,.05l.62.31c0-.23.18-.5.11-.69a6.12,6.12,0,0,1-.85-2.32.69.69,0,0,0-.47-.48c-.61-.05-1.23,0-1.94,0a5.78,5.78,0,0,1-.07.85,8.48,8.48,0,0,1-.42,1.41A8.7,8.7,0,0,1,47.79,28.46Zm12.88-9.87c-.23-.48-.39-.84-.57-1.18a2.52,2.52,0,0,1-.36-2.34,4.22,4.22,0,0,0,.24-.86c.06-.27.09-.54.14-.83C59.18,15.19,58.82,16.93,60.67,18.59ZM39.33,8.82a12,12,0,0,1,4.48-4.14C41.9,5.59,40.17,6.71,39.33,8.82ZM38.6,18l.14.07a3.36,3.36,0,0,0,.73-4.45,7.72,7.72,0,0,1,.22,2.25A8.26,8.26,0,0,1,38.6,18ZM51.75,29.22c-.63-.28-1-.83-1.75-.86s-1.16.62-1.8.78a.84.84,0,0,0,.52,0,9.72,9.72,0,0,0,.92-.44.83.83,0,0,1,1.15.26C51,29.23,51.25,29.55,51.75,29.22Zm1.75,2.25.37,1.92C54.44,32.9,54.31,32.27,53.5,31.47Zm-6.83-.26-.06-.07a15.25,15.25,0,0,0-1,1.3c-.22.35-.1.59.12.71ZM48.27,21l.82,1.7.17-.09C49.13,22,49.07,21.31,48.27,21Zm2,1.38.18.11.78-1.43A1.28,1.28,0,0,0,50.24,22.42Zm.66-3.53-.18-.17-1.16,1.54.14.12C50.48,20.2,50.31,19.23,50.9,18.89ZM59.26,8l1,2.31A2.84,2.84,0,0,0,59.26,8ZM44.59,31.51a.82.82,0,0,0-.14,1.4Zm10.1-.15A1.34,1.34,0,0,1,55,33C55.69,32.46,55.62,32.12,54.69,31.36Z"/><path d="M64.27,89.35a2.57,2.57,0,0,0-1.37-2.86c-.26.7-.56,1.39-.77,2.1s-.39,1.76-.67,2.62A2.89,2.89,0,0,0,62.07,94c.3.4.59.81.93,1.18a1.82,1.82,0,0,0,.56.27,1.67,1.67,0,0,1,.46.24A3.59,3.59,0,0,1,64.31,98a2.25,2.25,0,0,1-2.16,1,9,9,0,0,1-2.52-1.21,30.69,30.69,0,0,0-4.79-3.19,13.47,13.47,0,0,0-4.11-1.29,10.32,10.32,0,0,1-7.31-4.6A13.5,13.5,0,0,1,41.6,85a9.44,9.44,0,0,1,1-7.48,20.45,20.45,0,0,1,4.6-5.21,12.56,12.56,0,0,0,3.89-5.19,12.25,12.25,0,0,0,.46-5.58c-.4-3.88-2.47-6.75-5.39-9.14L45.74,52a10.07,10.07,0,0,1,2.43-2.6c.58-.44,1.16-.87,1.78-1.25a.72.72,0,0,1,.65.06c3,2.63,5.46,5.71,6.4,9.69a24.25,24.25,0,0,1,.55,5.25,17.26,17.26,0,0,1-.94,6.15,12.26,12.26,0,0,1-3.38,5.18c-1.6,1.44-3.11,3-4.62,4.5A5.37,5.37,0,0,0,47,82.38a3.57,3.57,0,0,0,2.1,3.52,5.93,5.93,0,0,0,2.65.2,3.82,3.82,0,0,0,1.4-.33,1.56,1.56,0,0,0,.74-.65,1.29,1.29,0,0,1,1.47-.78c1.19.23,2.22-.45,3.34-.58a.19.19,0,0,0,.16-.08,1.32,1.32,0,0,1,1.6-.3,7.9,7.9,0,0,0,2.33,0c.26,0,.52,0,.78,0a1.27,1.27,0,0,1,1.2,1.73.83.83,0,0,0,.09.59A3.49,3.49,0,0,1,64.27,89.35Zm-4.72,2.56a14,14,0,0,0-.21-1.76c-.34-1.49-1.29-1.84-2.6-1.08a6,6,0,0,0-1.4,1.36.9.9,0,0,0,.06,1.46c1.29,1.26,2.34,2.77,3.9,3.74.22.13.36.38.57.53.44.33.9.63,1.44,1a5,5,0,0,1,0-.56c0-.16.06-.32.09-.48.15.08.34.11.45.23.25.27.46.58.74.94l.68-.54c-.51-.6-1-1.16-1.43-1.66-1.5-1.57-1.47-3.37-.83-5.27.31-.92.58-1.86.91-2.9a12.85,12.85,0,0,0-1.33.73.58.58,0,0,0-.24.47A8.51,8.51,0,0,1,59.55,91.91ZM55.1,86.77l.8-.49c-.15-.18-.3-.37-.46-.55a1,1,0,0,0-.33-.25c-.23-.06-.57-.19-.67-.09a.74.74,0,0,0-.14.68A3.78,3.78,0,0,0,55.1,86.77Zm.85,7L54.21,92C54,92.45,54.69,93.17,56,93.72Z"/><path d="M36,16.58a5.25,5.25,0,0,1,.73,2.59,20.51,20.51,0,0,0,1,3.5l.26.1a3.57,3.57,0,0,0-.56.36,8.7,8.7,0,0,0-2.59,9.42,14.27,14.27,0,0,0,4.6,7c1.31,1.15,2.72,2.19,4.08,3.28l.53.39L39.9,47.63c-.12-.08-.31-.19-.48-.32a41.48,41.48,0,0,1-6.1-5.44,17.59,17.59,0,0,1-4.68-10c-.3-2.79-.4-5.64,1.05-8.23a24.44,24.44,0,0,1,2-3.08,18.19,18.19,0,0,1,4.15-3.92A1.07,1.07,0,0,1,36,16.58Z"/><path d="M49.15,40.9l3.51,5a34,34,0,0,0-3.18,1.8A25.77,25.77,0,0,0,46,50.55c-2.07,2.16-2.16,6.3-.31,9.1a5.15,5.15,0,0,0,3.81,2.46c.48,0,1,0,1.59,0-.07,1.1,0,2.14-.21,3.16a16.79,16.79,0,0,1-.74,2.45c-.12.37-.4.49-.81.46a10.67,10.67,0,0,1-6.2-2.51,13.32,13.32,0,0,1-4.74-10.32,11.56,11.56,0,0,1,1.07-5.56A18.61,18.61,0,0,1,42,46.3a18.66,18.66,0,0,1,6.49-5.09Z"/><path d="M59.38,43.26,56.19,38c.89-.39,1.78-.74,2.64-1.16a24.16,24.16,0,0,0,2.64-1.45,7.89,7.89,0,0,0,2-11.47,2.82,2.82,0,0,0-.67-.84C62,22.53,62,21.79,62.17,21c.31-1.73.58-3.46.9-5.34.41.25.67.38.9.55a17.15,17.15,0,0,1,5.94,6.89A13.36,13.36,0,0,1,71,28.69a14.87,14.87,0,0,1-.78,5.25c-1.45,3.68-4.23,6-7.62,7.75C61.55,42.23,60.48,42.73,59.38,43.26Z"/><path d="M47.57,36.15c2.19.17,4.15.73,6.1-.08l.15.13c-.18.67-.38,1.33-.53,2a2.06,2.06,0,0,0,0,.65,2.54,2.54,0,0,0,.7-.26c.35-.32.64-.7,1.07-1.18C56.56,39.85,58,42.2,59.4,44.6A28.52,28.52,0,0,1,62.85,53c1,4.86,0,9.13-3.91,12.47-.24.21-.5.39-.82.63a1.35,1.35,0,0,1,0-.29,21.91,21.91,0,0,0-.76-9.35,15,15,0,0,1-.28-1.65,21.15,21.15,0,0,0-2.3-6.12A50.72,50.72,0,0,0,50,40.9c-.38-.51-.75-1-1.09-1.58a2.42,2.42,0,0,1-.15-.63,4,4,0,0,0-.21-.61C48.25,37.48,47.94,36.88,47.57,36.15Z"/><path d="M47.82,38.48a4.81,4.81,0,0,1-1.92-2.59c-.07-.25-.09-.51-.15-.77s-.27-.71.17-.87a2.63,2.63,0,0,1,.95,0C46.51,35.93,47.19,37.2,47.82,38.48Z"/><path d="M54.11,34.23,55,34A3.49,3.49,0,0,1,53.78,38,6.84,6.84,0,0,0,54.11,34.23Z"/><path d="M50.6,36a8.6,8.6,0,0,1,0-1,.46.46,0,0,1,.28-.3,3.42,3.42,0,0,1,.71-.13c.69-.09,1.08.31,1,1a.52.52,0,0,1-.34.32C51.71,35.93,51.19,35.94,50.6,36Z"/><path d="M50.07,35.93c-.35,0-.67-.06-1,0a.72.72,0,0,1-.78-.67c-.12-.56.11-.79.68-.67l.28.09C50.21,34.88,50.21,34.88,50.07,35.93Z"/><path d="M53,35.83a3.65,3.65,0,0,1-.05-1c0-.18.33-.35.53-.42a.53.53,0,0,1,.43.28C54.15,35.32,53.83,35.74,53,35.83Z"/><path d="M45.27,35c-.58-.08-1-.28-.91-.83a.59.59,0,0,1,.44-.32C45.52,34,45.2,34.57,45.27,35Z"/><path d="M47.82,34.46c0,.4.08.81.12,1.26-.31,0-.67.14-.77-.37S47.24,34.57,47.82,34.46Z"/><path d="M55.44,34.72l.28-.92c.14.06.36.08.41.19C56.34,34.48,56,34.64,55.44,34.72Z"/><path class="cls-2" d="M60.67,18.59c-1.85-1.66-1.49-3.4-.55-5.21,0,.29-.08.56-.14.83a4.22,4.22,0,0,1-.24.86,2.52,2.52,0,0,0,.36,2.34C60.28,17.75,60.44,18.11,60.67,18.59Z"/><path class="cls-2" d="M39.33,8.82c.84-2.11,2.57-3.23,4.48-4.14A12,12,0,0,0,39.33,8.82Z"/><path class="cls-2" d="M38.6,18a8.26,8.26,0,0,0,1.09-2.13,7.72,7.72,0,0,0-.22-2.25,3.36,3.36,0,0,1-.73,4.45Z"/><path class="cls-2" d="M53.5,31.47c.81.8.94,1.43.37,1.92Z"/><path class="cls-2" d="M46.67,31.21l-.92,1.94c-.22-.12-.34-.36-.12-.71a15.25,15.25,0,0,1,1-1.3Z"/><path class="cls-2" d="M48.27,21c.8.27.86,1,1,1.61l-.17.09Z"/><path class="cls-2" d="M50.24,22.42a1.28,1.28,0,0,1,1-1.32l-.78,1.43Z"/><path class="cls-2" d="M50.9,18.89c-.59.34-.42,1.31-1.2,1.49l-.14-.12,1.16-1.54Z"/><path class="cls-2" d="M59.26,8a2.84,2.84,0,0,1,1,2.31Z"/><path class="cls-2" d="M44.59,31.51l-.14,1.4A.82.82,0,0,1,44.59,31.51Z"/><path class="cls-2" d="M54.69,31.36c.93.76,1,1.1.3,1.65A1.34,1.34,0,0,0,54.69,31.36Z"/><path class="cls-2" d="M59.55,91.91a8.51,8.51,0,0,0,.8-3.79.58.58,0,0,1,.24-.47,12.85,12.85,0,0,1,1.33-.73c-.33,1-.6,2-.91,2.9-.64,1.9-.67,3.7.83,5.27.48.5.92,1.06,1.43,1.66l-.68.54c-.28-.36-.49-.67-.74-.94-.11-.12-.3-.15-.45-.23,0,.16-.07.32-.09.48a5,5,0,0,0,0,.56c-.54-.37-1-.67-1.44-1-.21-.15-.35-.4-.57-.53-1.56-1-2.61-2.48-3.9-3.74a.9.9,0,0,1-.06-1.46,6,6,0,0,1,1.4-1.36c1.31-.76,2.26-.41,2.6,1.08A14,14,0,0,1,59.55,91.91Z"/><path class="cls-2" d="M55.1,86.77a3.78,3.78,0,0,1-.8-.7.74.74,0,0,1,.14-.68c.1-.1.44,0,.67.09a1,1,0,0,1,.33.25c.16.18.31.37.46.55Z"/><path class="cls-2" d="M56,93.72c-1.26-.55-2-1.27-1.74-1.69Z"/></svg>