<svg xmlns="http://www.w3.org/2000/svg" viewBox="0 0 49.72 49.72"><defs><style>.cls-1{fill:#e5c00a;}.cls-2{fill:#d18f1c;}.cls-3{fill:#dd9c1b;}.cls-4{fill:#e5bf07;}</style></defs><title>Artboard 4</title><g id="Layer_3" data-name="Layer 3"><path class="cls-1" d="M40.82,16.63C39,11.16,35.9,6.73,30.72,3.94c-2.32-1-4.61-2.09-7.24-1.81C17.72,1.79,13.17,4.26,9.57,8.49,4,15,2.71,22.74,4.34,31a22.08,22.08,0,0,0,9.1,14.21c4.3,3.05,9.11,3.13,14,2.86.58-1,1.75-1,2.64-1.49,1.18-.64,2.31-1.37,3.46-2.06a6,6,0,0,1,.69-.81c4.55-3.77,6.52-8.89,7.56-14.49l.36-1.91V24.4A52.24,52.24,0,0,0,40.82,16.63ZM35.45,34.45c-2.16,3.72-4.88,6.55-9.08,7.65-2.2.58-4.51.14-6.77.2-.48,0-.69-.25-.76-.69h-.3a4.31,4.31,0,0,1-2.17-1.06c-4.49-2.33-6.68-6.39-7.78-11a20.65,20.65,0,0,1,1.46-13.91c2.24-4.71,5.84-7.93,11.15-8.73a7.58,7.58,0,0,1,5.57,1c5.36,1.79,8.57,5.89,10.12,10.9A19,19,0,0,1,35.45,34.45Z"/><path class="cls-2" d="M21.2,6.91c-5.31.8-8.91,4-11.15,8.73A20.65,20.65,0,0,0,8.59,29.55c1.1,4.61,3.29,8.67,7.78,11a4.31,4.31,0,0,0,2.17,1.06c-.3-1.11-1.31-1.16-2.15-1.45a27,27,0,0,1-3.47-3.81,20.69,20.69,0,0,1-1.73-19.06,15.37,15.37,0,0,1,8.34-8.81c2.34-1.05,4.83-.41,7.24-.58A7.58,7.58,0,0,0,21.2,6.91Z"/><path class="cls-3" d="M36.89,18.8c-1.55-5-4.76-9.11-10.12-10.9-2.41.17-4.9-.47-7.24.58a15.37,15.37,0,0,0-8.34,8.81,20.69,20.69,0,0,0,1.73,19.06,27,27,0,0,0,3.47,3.81c.84.29,1.85.34,2.15,1.45,0,0,.58.72,1.06.69,2.26-.06,4.57.38,6.77-.2,4.2-1.1,6.92-3.93,9.08-7.65A19,19,0,0,0,36.89,18.8ZM26.59,34.16c-.34.18-.65.29-.91-.11a.77.77,0,0,0-.71.35c1.16,1.44,1.05,2.22-.4,2.89-2.34.66-2.58.53-2.8-2-.08-.89-.62-1.19-1.26-1.53a4.33,4.33,0,0,1-2.43-2.43c-.53-1.67.34-2.87,2.27-3.07,1.72-.54,2.12,1.2,3.18,1.82.92.11,1.32-.45,1.41-1.23a1.4,1.4,0,0,0-1-1.66c-.51-.16-1-.34-1.51-.54-3.87-1.58-4.87-3.3-4.23-7.41a4.12,4.12,0,0,1,2.71-3.45,1.09,1.09,0,0,0,.85-1.12c.2-2.07.41-2.2,2.52-1.82,1.41-.05,1.41-.05,1.43,2.17.86.81,2.54.81,2.5,2.52,1.19.36.76,1.2.46,1.86s-.48,1.59-1.58,1c-1.28.31-2.38-.36-3.55-.67-1.1,1.11-.49,1.75.56,2.44,1.22.8,2.91.79,3.75,2.21C30.58,26.86,30.31,32.22,26.59,34.16Z"/><path class="cls-3" d="M45.8,21.1c-.07-1-1.95-7.94-2.7-8.63l-.05-.05A8.78,8.78,0,0,0,40.79,9a14,14,0,0,0-5.42-4.63L34.67,4c-.05-.08-.11-.1-.18,0-3.42-2.14-7.19-2.13-11-1.78,2.63-.28,4.92.84,7.24,1.81C35.9,6.73,39,11.16,40.82,16.63A52.24,52.24,0,0,1,42.2,24.4v2.86l-.36,1.91c-1,5.6-3,10.72-7.56,14.49a6,6,0,0,0-.69.81c-1.15.69-2.28,1.42-3.46,2.06-.89.48-2.06.46-2.64,1.49a10.8,10.8,0,0,0,3.87-.42,17,17,0,0,0,7.28-4.15c.67-.06,1.57-1.59,1.81-1.83s.47-.45.61-.75c.43-1.34,2.92-3.75,2.91-4.3.33-.14.67-1.67.81-2.13C45.21,34.35,46.59,23.24,45.8,21.1Z"/><path class="cls-2" d="M27.85,24.39C27,23,25.32,23,24.1,22.18c-1.05-.69-1.66-1.33-.56-2.44l-.69,0h-.39c-1.14,1-1.08,1.91.24,2.61s2.94,1.38,4.42,2.06c2.75,4.29,1.45,7.63-1.44,9.66.26.4.57.29.91.11C30.31,32.22,30.58,26.86,27.85,24.39Z"/><path class="cls-2" d="M23.53,30.12c-.62.72-1.06.14-1.49-.23s-1.13-1.06-1.69-1.59C22.07,27.76,22.47,29.5,23.53,30.12Z"/><path class="cls-2" d="M24.57,37.29c.24-.95-.32-2,.4-2.89C26.13,35.84,26,36.62,24.57,37.29Z"/><path class="cls-2" d="M28.21,17.58c0-1.71-1.64-1.71-2.5-2.52,0-2.22,0-2.22-1.43-2.17.56.54.34,1.24.34,1.86,0,.78.34,1.09,1.08,1.05.6.59,1.41,1,1.8,1.77l0,.73c-.15.7-.29,1.41-.44,2.11,1.1.62,1.3-.36,1.58-1S29.4,17.94,28.21,17.58Z"/><path class="cls-4" d="M27.12,24.39c-1.48-.68-3-1.31-4.42-2.06s-1.38-1.63-.24-2.61a.48.48,0,0,1,.09-.13.48.48,0,0,0-.09.13h.39l.69,0c1.17.31,2.27,1,3.55.67.15-.7.29-1.41.44-2.11l0-.73c-.39-.8-1.2-1.18-1.8-1.77-.74,0-1.08-.27-1.08-1.05,0-.62.22-1.32-.34-1.86-2.11-.38-2.32-.25-2.52,1.82a1.09,1.09,0,0,1-.85,1.12,4.12,4.12,0,0,0-2.71,3.45c-.64,4.11.36,5.83,4.23,7.41.5.2,1,.38,1.51.54a1.4,1.4,0,0,1,1,1.66c-.09.78-.49,1.34-1.41,1.23-.62.72-1.06.14-1.49-.23s-1.13-1.06-1.69-1.59c-1.93.2-2.8,1.4-2.27,3.07a4.33,4.33,0,0,0,2.43,2.43c.64.34,1.18.64,1.26,1.53.22,2.49.46,2.62,2.8,2,.24-.95-.32-2,.4-2.89a.77.77,0,0,1,.71-.35C28.57,32,29.87,28.68,27.12,24.39Z"/></g></svg>